<?xml version="1.0" standalone="no"?><!DOCTYPE svg PUBLIC "-//W3C//DTD SVG 1.1//EN" "http://www.w3.org/Graphics/SVG/1.1/DTD/svg11.dtd"><svg class="icon" width="200px" height="200.00px" viewBox="0 0 1024 1024" version="1.1" xmlns="http://www.w3.org/2000/svg"><path d="M512 1024c-262.826667 0-477.866667-215.04-477.866667-477.866667s215.04-477.866667 477.866667-477.866666c13.653333 0 23.893333 6.826667 30.72 20.48s3.413333 23.893333-3.413333 34.133333c-17.066667 20.48-23.893333 47.786667-23.893334 75.093333 0 68.266667 54.613333 122.88 122.88 122.88 10.24 0 17.066667 0 27.306667-3.413333 10.24-3.413333 17.066667 0 27.306667 3.413333s13.653333 13.653333 13.653333 23.893334c10.24 58.026667 61.44 102.4 122.88 102.4 34.133333 0 64.853333-13.653333 88.746667-37.546667 10.24-10.24 20.48-13.653333 34.133333-10.24 10.24 3.413333 20.48 13.653333 23.893333 23.893333 10.24 37.546667 13.653333 78.506667 13.653334 119.466667 0 269.653333-215.04 481.28-477.866667 481.28z m-58.026667-884.053333c-197.973333 27.306667-351.573333 197.973333-351.573333 406.186666 0 225.28 184.32 409.6 409.6 409.6s409.6-184.32 409.6-409.6c0-17.066667 0-34.133333-3.413333-51.2-27.306667 13.653333-58.026667 20.48-88.746667 20.48-81.92 0-153.6-51.2-180.906667-126.293333-109.226667 3.413333-201.386667-81.92-201.386666-191.146667 0-20.48 3.413333-37.546667 6.826666-58.026666z" fill="#525252" /><path d="M324.266667 358.4m-34.133334 0a34.133333 34.133333 0 1 0 68.266667 0 34.133333 34.133333 0 1 0-68.266667 0Z" fill="#FD9F27" /><path d="M293.546667 614.4m-34.133334 0a34.133333 34.133333 0 1 0 68.266667 0 34.133333 34.133333 0 1 0-68.266667 0Z" fill="#FD9F27" /><path d="M546.133333 515.413333m-34.133333 0a34.133333 34.133333 0 1 0 68.266667 0 34.133333 34.133333 0 1 0-68.266667 0Z" fill="#FD9F27" /><path d="M481.28 768m-34.133333 0a34.133333 34.133333 0 1 0 68.266666 0 34.133333 34.133333 0 1 0-68.266666 0Z" fill="#FD9F27" /><path d="M733.866667 672.426667m-34.133334 0a34.133333 34.133333 0 1 0 68.266667 0 34.133333 34.133333 0 1 0-68.266667 0Z" fill="#FD9F27" /><path d="M682.666667 174.08c-3.413333 0-6.826667 0-10.24-3.413333-17.066667-6.826667-27.306667-27.306667-20.48-44.373334l34.133333-92.16c6.826667-17.066667 27.306667-27.306667 44.373333-20.48 17.066667 6.826667 27.306667 27.306667 20.48 44.373334l-34.133333 92.16c-6.826667 13.653333-20.48 23.893333-34.133333 23.893333zM819.2 303.786667c-13.653333 0-27.306667-6.826667-30.72-20.48-6.826667-17.066667 0-37.546667 17.066667-44.373334l71.68-30.72c17.066667-6.826667 37.546667 0 44.373333 17.066667 6.826667 17.066667 0 37.546667-17.066667 44.373333l-71.68 30.72c-3.413333 3.413333-10.24 3.413333-13.653333 3.413334z" fill="#525252" /></svg>