<?xml version="1.0" standalone="no"?><!DOCTYPE svg PUBLIC "-//W3C//DTD SVG 1.1//EN" "http://www.w3.org/Graphics/SVG/1.1/DTD/svg11.dtd"><svg class="icon" width="200px" height="200.00px" viewBox="0 0 1024 1024" version="1.1" xmlns="http://www.w3.org/2000/svg"><path d="M840.2 714.8c10.6-2.1 20.6-6.1 28.7-12.2 6.7-5 11.4-10.8 14.4-17 29.1-26.3 51.5-63.5 63.8-113.6 1.8-7.4 10.2-30.5 10.4-38.4C946.6 478.8 867 358 737.4 312.9c-5.3-1.9-10.6-3.6-15.9-5.2 121.4 48.6 195.8 162.7 206.3 215.6-0.2 7.9-8.6 31-10.4 38.4-12.3 50.1-34.7 87.3-63.8 113.6-2.9 6.2-7.7 12-14.4 17-8.2 6.1-18.1 10.1-28.7 12.2" fill="#CE7500" /><path d="M836 718.2l-3.8-19.6c3.9-0.8 7.9-1.1 11.8-1.4 6.4-0.5 12.9-1.1 16.2-3.5 6-4.5 9.1-7.2 15.6-14.6l0.4-0.4 0.4-0.4c29.2-26.4 49.6-62.9 60.8-108.6 0.7-2.7 2-6.8 3.5-11.6 2.1-6.7 6-18.9 6.5-23.7-4.9-22.5-24.1-63.8-63-108.1-29.7-33.9-79.9-79.4-150.4-103.9-129.1-45-246.4-13.6-295.5 40.6-4.3 4.8-13.8 32.9-17.3 43.4-1.6 4.6-2.9 8.6-3.9 11.3-11.2 30.2-16.8 63.7-14.8 89.4 0.3 4.5 0.9 9 1.6 13.5l0.1 0.6c0.1 0.6 0.1 1.3 0.2 2.1 0.5 6.7 1.1 10.9 1.8 12.5 0.8 1.2 1.7 2.4 2.6 3.7 4 5.8 9 13.1 14.3 14.9l-6.6 18.9c-11.4-4-18.8-14.6-24.1-22.4-0.9-1.3-1.7-2.5-2.5-3.6-3.7-5.1-4.6-13.5-5.3-22.4 0-0.6-0.1-1.1-0.1-1.6-0.8-4.9-1.4-9.9-1.7-14.8-2.1-28.5 3.9-65.1 16-97.9 0.9-2.4 2.2-6.2 3.7-10.7 7.9-23.3 14.9-43.2 21.5-50.5 28.9-32 75.2-54.7 130.3-64 59.5-10.1 124-3.9 186.6 17.9 74.5 26 127.5 73.9 158.8 109.6 35.3 40.2 61.3 85.7 67.9 118.6l0.2 1.1v1.1c-0.2 6.3-3.2 16.4-7.5 30.1-1.3 4.3-2.6 8.3-3.1 10.4-12.1 49.4-34.5 89.2-66.4 118.2-6.7 7.6-10.9 11.5-18.3 17-7.9 5.9-17.8 6.7-26.5 7.4-3.8 0.5-7.1 0.8-10 1.4z" fill="#9F6847" /><path d="M959.3 527c2.9-15.9-3.8-32.6-16.4-45.6 11.1-11.4 11.2-30.5-1.8-50.5-11.1-17-29.3-30.9-48.4-38.6 0.3-0.6 0.5-1.2 0.7-1.8 7.2-20.7-19.9-49-60.5-63.2-9.9-3.4-19.7-5.7-28.9-6.9-9.1-15.4-30-30.8-56.7-40.1-26.7-9.3-52.7-10.2-69.4-3.8-8-4.8-17.1-9.1-27-12.5-40.6-14.2-79.4-8.9-86.7 11.9-0.2 0.6-0.4 1.2-0.5 1.8-19.7-5.9-42.6-6.3-61.9 0.1-24.7 8.2-36.4 25.3-32.1 42.6-14.8 3.6-27.3 11.9-33.9 24.2-7.7 14.4-5.6 31 3.9 44.9-13.6 8.5-19.7 24.4-14.4 43.1 4.3 15.2 15.2 29.4 29.3 39.8-6.3 13.9 0.5 34.2 19.9 53 16.1 15.5 37.2 26.6 57 31.1 7 12.7 21 25.8 40.2 36.3 25.8 14 54.1 19.4 74 15.7 13.3 15.4 38.8 28.7 67.7 33.7 21.5 3.8 40.7 2.2 54-3.4 13.1 3.2 27.3 4.4 41 3 26.8-2.6 44.8-14.3 48.5-29.1 17.5 0.6 34.9-3.7 47.7-12.9 14.2-10.3 19.7-24.5 16.7-38.3 19.8-3.7 34.7-16.3 38-34.5z" fill="#FFB14A" /><path d="M736.3 654c-7.8 0-16-0.7-24.5-2.2-27.8-4.8-53.9-17.3-69.7-32.9-22.1 2.4-50.3-4.1-75.1-17.5-18.5-10.1-33.2-22.9-41.9-36.4-21-5.6-41.7-17.3-57.5-32.6-19-18.4-27.9-39.3-24.6-56.5-13.6-11.5-23.2-25.8-27.4-40.7-5.3-18.8-1-36.4 11.1-48.3-7.5-15.5-7.6-32.6 0.2-47.1 6.5-12.1 17.6-21.3 31.8-26.6 0.1-19.3 15-36.6 39.8-44.9 18-6 39.3-6.8 59.4-2.4 6.5-10 18.8-16.7 35.6-19 17.9-2.4 39.4 0.3 60.5 7.6 8.8 3.1 17.1 6.8 24.8 11.1 19.3-5.6 45.5-3.8 71.5 5.3s47.7 23.9 59.3 40.3c8.7 1.4 17.5 3.7 26.3 6.7 21.1 7.4 39.6 18.6 52.1 31.6 11.7 12.2 17.3 25.1 16.1 37 18.5 9.1 34.7 22.9 45 38.8 13 20 15.2 40.4 6.3 55.5 11.4 14.6 16.3 31.7 13.4 47.8-3.4 19-17.2 33.8-36.8 40.1-0.1 14.8-7.8 28.8-21.7 38.8-12.6 9.1-29 14.3-46.8 14.8-8.1 15.6-28.1 26.5-54.4 29-13.3 1.3-27.5 0.4-41.2-2.6-8.8 3.6-19.7 5.3-31.6 5.3z m-86.6-56.7l3.8 4.4c12.1 14 36.4 26 61.9 30.4 18.7 3.3 36.4 2.3 48.4-2.8l3-1.3 3.2 0.8c12.5 3 25.6 4 37.7 2.8 21.1-2.1 37.1-10.7 39.8-21.6l2-7.8 8.1 0.3c15.9 0.6 31-3.5 41.5-11 10.5-7.6 15.1-17.6 12.8-28.1l-2.2-10.1 10.2-1.8c16.1-2.9 27.2-12.7 29.7-26.3 2.2-12.2-2.8-25.6-13.7-36.8l-6.8-7 6.8-7c8.1-8.3 6.9-22.9-3.1-38.1-9.5-14.6-25.9-27.6-43.8-34.8l-9.7-3.9 4.3-9.5c0.1-0.3 0.3-0.6 0.4-0.9 4.6-13.3-17.6-37.6-54.4-50.4-9-3.1-18.1-5.3-26.9-6.5l-4.8-0.6-2.5-4.2c-8.2-13.9-27.9-27.6-51.4-35.8-23.5-8.2-47.4-9.7-62.5-3.9l-4.6 1.7-4.2-2.5c-7.6-4.6-16.1-8.5-25.1-11.7-36.7-12.8-69.3-7.5-73.9 5.7-0.1 0.3-0.2 0.6-0.3 1l-2.5 10.2-10-3c-18.4-5.5-39.3-5.5-55.9 0-18.6 6.2-28.7 18.3-25.6 30.7l2.4 9.8-9.8 2.4c-12.7 3-22.4 9.8-27.4 19.2-5.7 10.6-4.4 23.1 3.4 34.5l5.9 8.6-8.8 5.5c-10.3 6.5-14 18.1-10.1 31.9 3.5 12.5 12.8 25 25.6 34.4l6.5 4.8-3.3 7.4c-4.6 10.2 2.5 26.9 17.8 41.6 14.1 13.6 33.6 24.2 52.3 28.5l4.4 1 2.2 3.9c6.3 11.4 19.5 23.2 36.3 32.3 22.7 12.3 49.1 18.1 67.4 14.6l5.5-1z" fill="#9F6847" /><path d="M774.8 310.2c8.5 1.1 17.4 3.1 26.5 6.1-10.1-14-29.6-27.6-54-36.1-5-1.7-10-3.2-14.8-4.3 19.7 9.3 34.9 21.8 42.3 34.3zM648.7 266.3c1.5-0.6 3-1.1 4.6-1.5l-2.4-0.9c-5-1.7-10-3.2-14.8-4.3 4.4 2.1 8.7 4.3 12.6 6.7zM616.7 598.1c-10.6 2-23.7 1.4-37.4-1.7 17 8 34.6 12.4 49.8 13-4.8-3.6-9-7.4-12.4-11.3zM959.3 527c2.9-15.9-3.8-32.6-16.4-45.6 11.1-11.4 11.2-30.5-1.8-50.5-11.1-17-29.3-30.9-48.4-38.6 0.3-0.6 0.5-1.2 0.7-1.8 7.2-20.7-19.9-49-60.5-63.2-5-1.7-10-3.2-14.8-4.3 32.4 15.2 52.5 39.2 46.2 57.3-0.2 0.6-0.5 1.2-0.7 1.8 19.1 7.7 37.3 21.5 48.4 38.6 13.1 20 12.9 39.1 1.8 50.5 12.6 13 19.3 29.7 16.4 45.6-3.3 18.3-18.2 30.8-37.7 34.3 3 13.8-2.5 28-16.7 38.3-12.8 9.3-30.2 13.6-47.7 12.9-3.7 14.8-21.7 26.5-48.5 29.1-13.7 1.3-27.9 0.1-41-3-13.3 5.6-32.5 7.1-54 3.4-2.8-0.5-5.5-1-8.2-1.7 11.1 5.3 23.9 9.5 37.3 11.8 21.5 3.8 40.7 2.2 54-3.4 13.1 3.2 27.3 4.4 41 3 26.8-2.6 44.8-14.3 48.5-29.1 17.5 0.6 34.9-3.7 47.7-12.9 14.2-10.3 19.7-24.5 16.7-38.3 19.5-3.4 34.4-16 37.7-34.2z" fill="#EF9529" /><path d="M736.3 654c-7.8 0-16-0.7-24.5-2.2-27.8-4.8-53.9-17.3-69.7-32.9-22.1 2.4-50.3-4.1-75.1-17.5-18.5-10.1-33.2-22.9-41.9-36.4-21-5.6-41.7-17.3-57.5-32.6-19-18.4-27.9-39.3-24.6-56.5-13.6-11.5-23.2-25.8-27.4-40.7-5.3-18.8-1-36.4 11.1-48.3-7.5-15.5-7.6-32.6 0.2-47.1 6.5-12.1 17.6-21.3 31.8-26.6 0.1-19.3 15-36.6 39.8-44.9 18-6 39.3-6.8 59.4-2.4 6.5-10 18.8-16.7 35.6-19 17.9-2.4 39.4 0.3 60.5 7.6 8.8 3.1 17.1 6.8 24.8 11.1 19.3-5.6 45.5-3.8 71.5 5.3s47.7 23.9 59.3 40.3c8.7 1.4 17.5 3.7 26.3 6.7 21.1 7.4 39.6 18.6 52.1 31.6 11.7 12.2 17.3 25.1 16.1 37 18.5 9.1 34.7 22.9 45 38.8 13 20 15.2 40.4 6.3 55.5 11.4 14.6 16.3 31.7 13.4 47.8-3.4 19-17.2 33.8-36.8 40.1-0.1 14.8-7.8 28.8-21.7 38.8-12.6 9.1-29 14.3-46.8 14.8-8.1 15.6-28.1 26.5-54.4 29-13.3 1.3-27.5 0.4-41.2-2.6-8.8 3.6-19.7 5.3-31.6 5.3z m-86.6-56.7l3.8 4.4c12.1 14 36.4 26 61.9 30.4 18.7 3.3 36.4 2.3 48.4-2.8l3-1.3 3.2 0.8c12.5 3 25.6 4 37.7 2.8 21.1-2.1 37.1-10.7 39.8-21.6l2-7.8 8.1 0.3c15.9 0.6 31-3.5 41.5-11 10.5-7.6 15.1-17.6 12.8-28.1l-2.2-10.1 10.2-1.8c16.1-2.9 27.2-12.7 29.7-26.3 2.2-12.2-2.8-25.6-13.7-36.8l-6.8-7 6.8-7c8.1-8.3 6.9-22.9-3.1-38.1-9.5-14.6-25.9-27.6-43.8-34.8l-9.7-3.9 4.3-9.5c0.1-0.3 0.3-0.6 0.4-0.9 4.6-13.3-17.6-37.6-54.4-50.4-9-3.1-18.1-5.3-26.9-6.5l-4.8-0.6-2.5-4.2c-8.2-13.9-27.9-27.6-51.4-35.8-23.5-8.2-47.4-9.7-62.5-3.9l-4.6 1.7-4.2-2.5c-7.6-4.6-16.1-8.5-25.1-11.7-36.7-12.8-69.3-7.5-73.9 5.7-0.1 0.3-0.2 0.6-0.3 1l-2.5 10.2-10-3c-18.4-5.5-39.3-5.5-55.9 0-18.6 6.2-28.7 18.3-25.6 30.7l2.4 9.8-9.8 2.4c-12.7 3-22.4 9.8-27.4 19.2-5.7 10.6-4.4 23.1 3.4 34.5l5.9 8.6-8.8 5.5c-10.3 6.5-14 18.1-10.1 31.9 3.5 12.5 12.8 25 25.6 34.4l6.5 4.8-3.3 7.4c-4.6 10.2 2.5 26.9 17.8 41.6 14.1 13.6 33.6 24.2 52.3 28.5l4.4 1 2.2 3.9c6.3 11.4 19.5 23.2 36.3 32.3 22.7 12.3 49.1 18.1 67.4 14.6l5.5-1z" fill="#9F6847" /><path d="M751.2 597.7c-33.7 0-69.7-6.3-105.1-18.6-53.5-18.6-99.5-49-129.5-85.3-31.2-37.8-41.7-77.8-29.5-112.7 12.1-34.9 45.2-59.7 93.2-69.9 46.1-9.8 101-5 154.5 13.7 53.5 18.6 99.5 49 129.5 85.3C895.5 448 906 488 893.8 522.9c-12.1 34.9-45.2 59.7-93.2 69.9-15.6 3.2-32.2 4.9-49.4 4.9zM629.7 326.2c-15.8 0-31.1 1.5-45.3 4.6-40.8 8.7-68.7 28.9-78.4 56.9-9.8 28-0.5 61.2 26.1 93.3 27.7 33.6 70.6 61.7 120.7 79.2 50.1 17.5 101.1 22.1 143.8 13 40.8-8.7 68.7-28.9 78.4-56.9s0.5-61.2-26.1-93.3c-27.7-33.6-70.6-61.7-120.7-79.2-33.4-11.7-67.1-17.6-98.5-17.6z m254.6 193.3z" fill="#9F6847" /><path d="M850.8 423c-1.1 0-2.2-0.2-3.3-0.6l-258.5-90c-5.2-1.8-8-7.5-6.2-12.7s7.5-8 12.7-6.2l258.6 90.1c5.2 1.8 8 7.5 6.2 12.7-1.5 4.2-5.4 6.7-9.5 6.7zM791.9 592.1c-1.1 0-2.2-0.2-3.3-0.6L530 501.4c-5.2-1.8-8-7.5-6.2-12.7 1.8-5.2 7.5-8 12.7-6.2l258.6 90.1c5.2 1.8 8 7.5 6.2 12.7-1.4 4.2-5.3 6.8-9.4 6.8zM844.4 569.5c-1.1 0-2.2-0.2-3.3-0.6L493 447.6c-5.2-1.8-8-7.5-6.2-12.7 1.8-5.2 7.5-8 12.7-6.2L847.6 550c5.2 1.8 8 7.5 6.2 12.7-1.4 4.2-5.3 6.8-9.4 6.8z" fill="#9F6847" /><path d="M851.9 568.5c-4.1 0-24.5-1-45.1-19.8-11.8-10.8-11.7-34.7-7.8-62.9-13.7 17.5-28 29.5-42.7 36-14.9 6.5-29.9 7.2-44.5 2.1-3.5-1.2-6.3-3.9-7.8-7.5-2.8-6.6-3-18.5 13.7-60.6 4.3-10.8 8.7-21.1 12.2-28.9h-2.1c-5.8 6.9-19 21.9-34.6 35.8-12.4 11.1-23.9 19.2-34 24.1-14.8 7.1-27.4 7.7-37.5 1.8-9.5-5.6-19-18.1-10.4-45.9 4.9-15.7 14.2-32.6 21-44.9 1-1.8 2-3.7 3-5.5-5.4-0.2-11.2-0.4-16.8-1.6-2 2.8-4.9 7.5-7.4 11.5-7 11.4-16.6 27.1-28.9 38.4-16 14.8-33 19.3-50.6 13.1-16.4-5.7-35.7-21.1-34-62.1 0.9-22.3 7.7-42.2 8-43 0.7-2 2.1-3.8 3.9-5l14.6-9.8c2.6-1.8 5.9-2.2 8.9-1.1l215.4 75.1c0.1 0 0.1 0 0.2 0.1l132.5 46.2c2.7 1 4.9 3.1 6 5.7 14.8 37.3 6 64.5-4 80.8-10.8 17.6-25.3 26.3-26 26.7-1.4 0.8-3 1.3-4.6 1.4 0-0.2-0.2-0.2-0.6-0.2z m-27.5-113.2c-0.3 1.9-0.7 4-1.1 6.1-2.3 12.4-5.3 29.5-6.3 44.7-1.4 22.7 2.8 27.3 3.3 27.8 12.4 11.4 24.2 13.9 29.1 14.4 8.5-6.2 37-30.9 20.8-77.1l-45.8-15.9z m-101.7 50.9c8.4 2 16.8 1 25.6-2.8 17.8-7.8 35.5-26.7 52.6-56.3l-50.3-17.5c-3.4 7.5-8.5 19.2-13.5 31.6-11.2 27.9-13.8 40.1-14.4 45z m-67-109.7c-1.5 3-3.5 6.6-5.9 10.9-9.3 16.8-31.1 56.2-18 63.9 8.1 4.8 26-4 47.8-23.4 13.4-11.9 25.2-25.1 31.3-32.1l-55.2-19.3z m-132-38.3c-4 13.3-17.2 65.5 14.6 76.6 22.3 7.8 39.8-17.1 55.8-43.1 3.3-5.4 6.2-10 8.8-13.5l-71.8-25-7.4 5z m1-3.1z" fill="#9F6847" /><path d="M834.3 556.3c-6 0-11.5-1.2-16.3-2.8-17.6-6.1-28.1-20.2-31.5-41.7-2.5-16.5-0.3-34.7 1.3-48 0.6-4.7 1.2-10.2 1.4-13.6-5-2.5-9.8-6-14.1-9.2-0.4 2.1-0.7 4.2-1.1 6.2-2.3 13.9-5.5 32.9-11.4 48.2-10.5 27.1-25.7 31-36.6 29.5-11.6-1.6-21.1-9.9-28.3-24.7-4.9-10.1-8.8-23.6-11.7-40-3.6-20.6-4.6-40.5-4.9-49.5l-1.7-1.3c-2.1 8.3-5.1 19.1-8.4 30.2-13.1 43.4-20.7 52.6-26.9 56-3.4 1.9-7.3 2.2-10.8 1-14.6-5.1-25.9-15-33.5-29.3-7.5-14.2-11.2-32.5-11.1-54.7-14.5 24.6-29.2 43.4-45.2 44.5-2.1 0.1-4.1 0.2-6 0.2-26.7 0-41.5-12.6-42.2-13.2-1.2-1.1-2.2-2.4-2.8-4-0.3-0.7-6.2-16.5-3.8-37 2.3-19 12.3-45.8 47.1-65.7 2.5-1.4 5.5-1.7 8.3-0.8l132.5 46.2c0.1 0 0.1 0 0.2 0.1L892.2 458c3 1 5.3 3.4 6.2 6.4l5.3 16.7c0.7 2.1 0.6 4.3-0.1 6.3-0.3 0.8-7.3 20.7-20.5 38.7-16.9 23.3-34.3 30.2-48.8 30.2zM809.2 450c-0.1 4.4-0.7 9.8-1.5 16.1-3.7 30.4-5.4 60.7 16.9 68.5 5.4 1.9 22 7.7 42.5-20.4 8.6-11.8 14.3-24.8 16.6-30.5L881 475l-71.8-25z m-107.9-37.6c0.4 9.3 1.5 26.9 4.5 44.6 5 28.8 13.6 46.8 22.9 48.1 15 2.1 22.4-42.3 25.6-61.2 0.8-4.9 1.5-8.9 2.2-12.2l-55.2-19.3z m-90-31.3c-4.9 33.9-2.8 59.7 6.2 76.8 4.5 8.5 10.5 14.4 18.3 18.1 2.6-4.2 8.1-15.4 16.7-44.2 3.8-12.8 7.1-25.2 9.1-33.2l-50.3-17.5z m-100.8 49.1c4.2 2.7 14.9 7.9 31.7 6.8 0.7 0 6.8-1 19.8-19.7 8.7-12.5 16.9-27.8 22.8-39 1-2 2-3.8 3-5.5L542 356.9c-41.2 26.1-34.4 63.1-31.5 73.3z" fill="#9F6847" /><path d="M807 706.3L442.3 579.2c-35.7-12.4-54.6-51.5-42.1-87.2 12.4-35.7 51.5-54.6 87.2-42.1L852 577c35.7 12.4 54.6 51.5 42.1 87.2-12.4 35.7-51.4 54.5-87.1 42.1z" fill="#FFD371" /><path d="M829.4 720.1c-8.5 0-17.2-1.4-25.8-4.4L439 588.7c-40.8-14.2-62.5-59.1-48.3-99.9 6.9-19.8 21.1-35.7 40-44.8 18.9-9.1 40.2-10.3 59.9-3.4l364.6 127.1c19.8 6.9 35.7 21.1 44.8 40 9.1 18.9 10.3 40.2 3.4 59.9-11.1 32.2-41.5 52.5-74 52.5z m-364.6-264c-8.7 0-17.3 2-25.4 5.9-14.1 6.8-24.6 18.7-29.8 33.4-10.6 30.4 5.5 63.8 36 74.4l364.6 127.1c14.7 5.1 30.6 4.2 44.7-2.6 14.1-6.8 24.6-18.7 29.8-33.4s4.2-30.6-2.6-44.7c-6.8-14.1-18.7-24.6-33.4-29.8l-364.6-127c-6.3-2.2-12.8-3.3-19.3-3.3z" fill="#9F6847" /><path d="M852 577l-29.8-10.4c35.7 12.4 54.6 51.5 42.1 87.2-12.4 35.7-51.5 54.6-87.2 42.1l29.8 10.4c35.7 12.4 74.7-6.4 87.2-42.1s-6.4-74.7-42.1-87.2z" fill="#F9BA3A" /><path d="M829.4 720.1c-8.5 0-17.2-1.4-25.8-4.4L439 588.7c-40.8-14.2-62.5-59.1-48.3-99.9 6.9-19.8 21.1-35.7 40-44.8 18.9-9.1 40.2-10.3 59.9-3.4l364.6 127.1c19.8 6.9 35.7 21.1 44.8 40 9.1 18.9 10.3 40.2 3.4 59.9-11.1 32.2-41.5 52.5-74 52.5z m-364.6-264c-8.7 0-17.3 2-25.4 5.9-14.1 6.8-24.6 18.7-29.8 33.4-10.6 30.4 5.5 63.8 36 74.4l364.6 127.1c14.7 5.1 30.6 4.2 44.7-2.6 14.1-6.8 24.6-18.7 29.8-33.4s4.2-30.6-2.6-44.7c-6.8-14.1-18.7-24.6-33.4-29.8l-364.6-127c-6.3-2.2-12.8-3.3-19.3-3.3z" fill="#9F6847" /><path d="M636.573592 624.676107a87.8 47.4 19.214 1 0 31.198432-89.519259 87.8 47.4 19.214 1 0-31.198432 89.519259Z" fill="#FF5033" /><path d="M683.9 643.1c-16 0-33.4-3.1-50.6-9.1-23.7-8.3-44.3-21.1-58.1-36.2-15.3-16.7-20.7-34.6-15.3-50.1 10.6-30.4 59.4-40.1 111.2-22 51.8 18 84 56 73.4 86.4-5.4 15.6-20.8 26.2-43.2 29.8-5.5 0.8-11.4 1.2-17.4 1.2z m-63.3-106.5c-22.2 0-38.2 7.1-41.9 17.7-2.9 8.2 1.2 19.2 11.2 30.1 11.6 12.7 29.3 23.7 49.9 30.8 20.6 7.2 41.3 9.6 58.3 6.9 14.6-2.4 24.6-8.4 27.4-16.6 5.8-16.7-17.9-45.8-61.1-60.9-15.9-5.6-30.9-8-43.8-8z" fill="#9F6847" /><path d="M667.7 535.1c-5.1-1.8-10.2-3.3-15.2-4.5 37.3 17.3 60.3 45.7 52.6 67.7-7.7 22-43.3 30-83.3 20.3 4.7 2.2 9.6 4.1 14.7 5.9 45.8 16 89.9 8.8 98.5-15.9 8.6-24.6-21.5-57.5-67.3-73.5z" fill="#F2351C" /><path d="M599.1 561.4c7.7-22 43.3-30 83.3-20.3-4.7-2.2-9.6-4.1-14.7-5.9-45.8-16-89.9-8.8-98.5 15.9-8.6 24.7 21.5 57.7 67.3 73.6 5.1 1.8 10.2 3.3 15.2 4.5-37.3-17.4-60.2-45.9-52.6-67.8z" fill="#FF7664" /><path d="M683.9 643.1c-16 0-33.4-3.1-50.6-9.1-23.7-8.3-44.3-21.1-58.1-36.2-15.3-16.7-20.7-34.6-15.3-50.1 10.6-30.4 59.4-40.1 111.2-22 51.8 18 84 56 73.4 86.4-5.4 15.6-20.8 26.2-43.2 29.8-5.5 0.8-11.4 1.2-17.4 1.2z m-63.3-106.5c-22.2 0-38.2 7.1-41.9 17.7-2.9 8.2 1.2 19.2 11.2 30.1 11.6 12.7 29.3 23.7 49.9 30.8 20.6 7.2 41.3 9.6 58.3 6.9 14.6-2.4 24.6-8.4 27.4-16.6 5.8-16.7-17.9-45.8-61.1-60.9-15.9-5.6-30.9-8-43.8-8z" fill="#9F6847" /><path d="M634 500.4c-0.7-7.6-0.4-32.1-2.8-39.7-28.3-48.2-143.3-136-280.5-136-137.4 0-243.7 68-274.9 141.7-4.3 10.1-2.6 50.5-2.8 62.3-0.7 33.1 5.1 68 16.2 93.5 1.9 4.5 4.1 8.8 6.3 13 1.7 3.8 3.8 7.7 5.8 11.8 4.7 9.3 10.9 17.4 19.2 23.3 5 5.5 10.4 10.7 16.1 15.6 2.8 13.4 15.3 27.2 35.8 37 18.5 8.8 39.6 12.5 58.5 11.4 3 0.9 6 1.7 9 2.4 10.9 8.6 27.1 15.5 46.5 18.8 24.9 4.2 49.4 1.6 67-5.8 5.1 0 10.3-0.1 15.4-0.3 17.6 7.7 42.5 10.4 67.8 6.2 21.5-3.6 39.1-11.7 49.9-21.6 13.5-1.4 27.2-5 39.7-11 20-9.5 32.4-22.9 35.6-36.1 6.5-5.2 12.6-10.7 18.4-16.5 9.4-5.4 17.4-12.6 23.1-21 4.6-6.9 7.3-13.9 8-20.8 18.6-34.4 27.6-76.8 22.7-128.2z" fill="#ED900A" /><path d="M412.4 767.6c-16.6 0-32.4-2.8-45.6-8.1-3.8 0.1-7.7 0.2-11.5 0.2-19.9 7.9-45.5 10-70.6 5.7-19.4-3.3-36.8-10.2-49.3-19.5-1.9-0.5-3.8-1-5.6-1.5-21 1-42.8-3.4-61.7-12.4-21.2-10.1-35.7-24.7-40.4-40.5-4.9-4.3-9.5-8.9-13.9-13.6-8.7-6.5-15.9-15.3-21.4-26.4l-1-2c-1.7-3.4-3.3-6.6-4.8-9.9-2.4-4.4-4.6-8.9-6.5-13.5-11.4-26.2-17.8-62.7-17.1-97.7 0.1-2.5 0-6.6 0-11.3-0.3-24.6-0.2-45.7 3.7-54.7 16.8-39.7 53-76.4 102-103.3 52.9-29.1 115.8-44.5 182.1-44.5 78.9 0 144.7 27.9 186 51.2 46.6 26.4 86.1 60.7 103.1 89.7l0.6 1 0.3 1.1c1.9 6 2.4 16.6 2.8 30.9 0.1 4.5 0.3 8.7 0.5 10.8 4.8 50.1-3 94.6-23.2 132.3-1.2 8-4.3 15.8-9.4 23.2-6.1 9-14.8 17.1-25.2 23.3-5 5-10.3 9.8-15.8 14.4-5.1 15.3-19.5 29.5-40 39.3-12.2 5.8-25.9 9.7-39.8 11.5-12.7 10.6-31.1 18.3-52.4 21.9-8.8 1.7-17.4 2.4-25.9 2.4z m-41.8-28.3l2.1 0.9c16.5 7.2 39.7 9.2 62.1 5.5 18.7-3.2 35-10.1 44.8-19.1l2.5-2.3 3.3-0.3c12.8-1.3 25.4-4.8 36.4-10 16.3-7.8 27.6-18.8 30.1-29.4l0.8-3.3 2.7-2.1c6.2-5 12.1-10.2 17.5-15.7l0.9-1 1.2-0.7c8.3-4.8 15.2-11.1 19.9-17.9 3.6-5.3 5.7-10.8 6.3-16.2l0.2-2 1-1.7c18.9-34.5 26.2-75.7 21.7-122.5-0.3-2.8-0.4-7.1-0.5-12.1-0.2-7.1-0.6-19.8-1.6-24.5-12-19.7-43.8-52.3-95.1-81.3-39.2-22.2-101.6-48.6-176.2-48.6C214 335 113.5 403.2 85 470.6c-2.5 5.9-2.2 35.6-2.1 46.7 0.1 4.9 0.1 9.1 0 11.9-0.7 32.2 5.1 65.6 15.4 89.3 1.8 4.1 3.8 8.2 6 12.3l0.3 0.6c1.4 3 3 6.2 4.6 9.5l1 2c4.3 8.6 9.5 15 16.1 19.7l0.8 0.6 0.7 0.8c4.7 5.2 9.9 10.1 15.3 14.8l2.6 2.2 0.7 3.4c2.2 10.8 13.5 22 30.3 30 16.2 7.7 35.7 11.5 53.6 10.4l1.7-0.1 1.6 0.5c2.8 0.8 5.7 1.6 8.7 2.4l2 0.5 1.7 1.3c10 7.9 24.9 13.9 42 16.8 22 3.7 45 1.8 61.4-5.2l1.8-0.8h2c5 0 10.1-0.1 15-0.3l2.4-0.6z" fill="#9F6847" /><path d="M337.3 749.4c-5.1 0.2-10.2 0.3-15.4 0.3-8 3.4-17.4 5.7-27.6 6.9 18.7 2.1 36.7 0.4 51.4-4.2-2.9-0.8-5.8-1.8-8.4-3zM634 500.4c-0.7-7.6-0.4-32.1-2.8-39.7-28.3-48.2-143.3-136-280.5-136-5.6 0-11.2 0.1-16.7 0.3 130.7 5.9 238.5 89.2 265.8 135.7 2.4 7.5 2.1 32.1 2.8 39.7 4.9 51.4-4.1 93.9-22.9 128.3-0.7 6.8-3.3 13.9-8 20.8-5.7 8.4-13.8 15.5-23.1 21-5.8 5.9-11.9 11.4-18.4 16.5-3.1 13.1-15.6 26.5-35.6 36.1-12.5 6-26.3 9.6-39.7 11-10.8 9.9-28.3 18-49.9 21.6-2.7 0.5-5.3 0.8-8 1.1 12.3 1.4 25.8 1.2 39.4-1.1 21.5-3.6 39.1-11.7 49.9-21.6 13.5-1.4 27.2-5 39.7-11 20-9.5 32.4-22.9 35.6-36.1 6.5-5.2 12.6-10.7 18.4-16.5 9.4-5.4 17.4-12.6 23.1-21 4.6-6.9 7.3-13.9 8-20.8 18.8-34.5 27.8-76.9 22.9-128.3z" fill="#CE7500" /><path d="M317.3 755.6c-19.4-3.3-35.6-10.2-46.5-18.8l-9-2.4c-18.9 1.1-40-2.6-58.5-11.4-20.5-9.8-33-23.6-35.8-37-5.7-4.9-11.1-10.1-16.1-15.6-8.3-6-14.5-14-19.2-23.3-2-4.1-4-8-5.8-11.8-2.3-4.2-4.4-8.5-6.3-13-11.1-25.5-16.9-60.4-16.2-93.5 0.2-11.9-1.4-52.2 2.8-62.3 29.9-70.7 129.1-136.2 258.5-141.3-4.8-0.2-9.6-0.3-14.5-0.3-137.4 0-243.7 68-274.9 141.7-4.3 10.1-2.6 50.5-2.8 62.3-0.7 33.1 5.1 68 16.2 93.5 1.9 4.5 4.1 8.8 6.3 13 1.7 3.8 3.8 7.7 5.8 11.8 4.7 9.3 10.9 17.4 19.2 23.3 5 5.5 10.4 10.7 16.1 15.6 2.8 13.4 15.3 27.2 35.8 37 18.5 8.8 39.6 12.5 58.5 11.4 3 0.9 6 1.7 9 2.4 10.9 8.6 27.1 15.5 46.5 18.8 13.5 2.3 26.9 2.5 39.1 1.1-2.7-0.4-5.5-0.8-8.2-1.2zM399.6 749.4c-5.1 0.2-10.2 0.3-15.4 0.3-2.3 1-4.8 1.9-7.4 2.7 14.6 4.6 32.7 6.3 51.4 4.3-10.6-1.2-20.4-3.7-28.6-7.3z" fill="#FFAF45" /><path d="M412.4 767.6c-16.6 0-32.4-2.8-45.6-8.1-3.8 0.1-7.7 0.2-11.5 0.2-19.9 7.9-45.5 10-70.6 5.7-19.4-3.3-36.8-10.2-49.3-19.5-1.9-0.5-3.8-1-5.6-1.5-21 1-42.8-3.4-61.7-12.4-21.2-10.1-35.7-24.7-40.4-40.5-4.9-4.3-9.5-8.9-13.9-13.6-8.7-6.5-15.9-15.3-21.4-26.4l-1-2c-1.7-3.4-3.3-6.6-4.8-9.9-2.4-4.4-4.6-8.9-6.5-13.5-11.4-26.2-17.8-62.7-17.1-97.7 0.1-2.5 0-6.6 0-11.3-0.3-24.6-0.2-45.7 3.7-54.7 16.8-39.7 53-76.4 102-103.3 52.9-29.1 115.8-44.5 182.1-44.5 78.9 0 144.7 27.9 186 51.2 46.6 26.4 86.1 60.7 103.1 89.7l0.6 1 0.3 1.1c1.9 6 2.4 16.6 2.8 30.9 0.1 4.5 0.3 8.7 0.5 10.8 4.8 50.1-3 94.6-23.2 132.3-1.2 8-4.3 15.8-9.4 23.2-6.1 9-14.8 17.1-25.2 23.3-5 5-10.3 9.8-15.8 14.4-5.1 15.3-19.5 29.5-40 39.3-12.2 5.8-25.9 9.7-39.8 11.5-12.7 10.6-31.1 18.3-52.4 21.9-8.8 1.7-17.4 2.4-25.9 2.4z m-41.8-28.3l2.1 0.9c16.5 7.2 39.7 9.2 62.1 5.5 18.7-3.2 35-10.1 44.8-19.1l2.5-2.3 3.3-0.3c12.8-1.3 25.4-4.8 36.4-10 16.3-7.8 27.6-18.8 30.1-29.4l0.8-3.3 2.7-2.1c6.2-5 12.1-10.2 17.5-15.7l0.9-1 1.2-0.7c8.3-4.8 15.2-11.1 19.9-17.9 3.6-5.3 5.7-10.8 6.3-16.2l0.2-2 1-1.7c18.9-34.5 26.2-75.7 21.7-122.5-0.3-2.8-0.4-7.1-0.5-12.1-0.2-7.1-0.6-19.8-1.6-24.5-12-19.7-43.8-52.3-95.1-81.3-39.2-22.2-101.6-48.6-176.2-48.6C214 335 113.5 403.2 85 470.6c-2.5 5.9-2.2 35.6-2.1 46.7 0.1 4.9 0.1 9.1 0 11.9-0.7 32.2 5.1 65.6 15.4 89.3 1.8 4.1 3.8 8.2 6 12.3l0.3 0.6c1.4 3 3 6.2 4.6 9.5l1 2c4.3 8.6 9.5 15 16.1 19.7l0.8 0.6 0.7 0.8c4.7 5.2 9.9 10.1 15.3 14.8l2.6 2.2 0.7 3.4c2.2 10.8 13.5 22 30.3 30 16.2 7.7 35.7 11.5 53.6 10.4l1.7-0.1 1.6 0.5c2.8 0.8 5.7 1.6 8.7 2.4l2 0.5 1.7 1.3c10 7.9 24.9 13.9 42 16.8 22 3.7 45 1.8 61.4-5.2l1.8-0.8h2c5 0 10.1-0.1 15-0.3l2.4-0.6z" fill="#9F6847" /><path d="M630.7 453.8c-2.5-16-14.3-29.6-30.5-37.6 6.7-14.4 0.6-32.5-18.4-47.1-16.1-12.4-37.8-19.6-58.4-20.5 0.1-0.6 0.1-1.3 0.1-1.9 0-21.9-34.9-39.7-77.9-39.7-10.5 0-20.5 1.1-29.6 3-13.6-11.5-38.4-19.2-66.8-19.2-28.3 0-53.1 7.7-66.8 19.2-9.1-1.9-19.1-3-29.6-3-43 0-77.9 17.8-77.9 39.7 0 0.6 0 1.3 0.1 1.9-20.6 0.9-42.3 8.1-58.4 20.5C96 385 90.5 405 100.3 419.9c-12.8 8.2-21.8 20.2-24 34C73.7 470 81.2 485 94.8 495c-10 12.5-10.6 29.5 0.6 45.4 9.1 13 24.1 22.8 40.8 27.9-1.4 15.2 11.8 32.1 36.3 43.4 20.3 9.4 43.9 12.8 64.1 10.6 10.8 9.7 28.4 17.5 49.9 21 29 4.8 57.5 0.6 75.1-9.6 17.6 10.1 46.1 14.3 75.1 9.6 21.5-3.5 39.1-11.3 49.9-21 13.5-1.3 27.2-4.8 39.7-10.6 24.5-11.3 37.6-28.2 36.3-43.4 16.7-5.2 31.7-14.9 40.8-27.9 10-14.4 10.6-29.6 3.2-41.7 17-9.8 27-26.6 24.1-44.9z" fill="#FFB14A" /><path d="M412.7 655.2c-19.1 0-37.3-3.5-51.3-10.2-20.1 9.6-48.8 12.7-76.7 8.2-20.8-3.4-38.9-10.7-51.5-20.5-21.7 1.6-45.1-2.6-65-11.8-24-11.1-39.3-27.9-41.8-45.3-16.6-6.4-30.4-16.7-39.3-29.4-11.1-16-12.9-34.1-5.4-49.2-12.2-12.2-17.9-28.3-15.3-44.6 2.1-13.6 9.6-25.9 21.3-35.6-6.3-18.2 2.1-39.5 22.8-55.5 15.1-11.6 34.8-19.4 55.3-21.8 2.8-11.6 12.3-21.9 27.4-29.7 16.1-8.2 37.3-12.7 59.6-12.7 9.3 0 18.4 0.8 27 2.3 16.3-11.7 41.8-18.5 69.3-18.5s53 6.9 69.3 18.5c8.7-1.5 17.8-2.3 27-2.3 22.4 0 43.5 4.5 59.6 12.7 15.1 7.7 24.6 18 27.4 29.7 20.5 2.5 40.3 10.2 55.3 21.8 18.9 14.6 27.6 33.2 24.3 50.3 15.6 10 25.8 24.5 28.4 40.8 3 19-5.1 37.5-21.5 50 4.7 14 2.1 29.7-7.7 43.8-8.9 12.7-22.6 23-39.3 29.4-2.5 17.4-17.8 34.2-41.8 45.3-12.2 5.6-25.9 9.5-39.8 11.2-12.7 10.2-31.1 17.7-52.4 21.2-8.3 1.2-16.8 1.9-25.2 1.9z m-51.3-33l5 2.9c16.1 9.3 42.9 12.5 68.4 8.4 18.8-3.1 35.1-9.8 44.8-18.5l2.4-2.2 3.3-0.3c12.8-1.3 25.5-4.6 36.5-9.8 19.2-8.9 31.5-22.3 30.5-33.5l-0.7-8.1 7.7-2.4c15.2-4.7 28.1-13.5 35.5-24.1 7.4-10.7 8.5-21.6 2.9-30.7l-5.4-8.8 9-5.1c14.3-8.1 21.5-21 19.4-34.6-1.9-12.2-11.1-23.3-25.1-30.3l-8.7-4.4 4.1-8.8c4.9-10.4-1-23.8-15.4-35-13.8-10.7-33.5-17.5-52.8-18.4l-10.5-0.5 1-10.4v-1c0-14-29-29.7-67.9-29.7-9.5 0-18.8 0.9-27.5 2.8l-4.8 1-3.7-3.1c-12.3-10.4-35.4-16.9-60.3-16.9s-48 6.5-60.3 16.9l-3.7 3.1-4.8-1c-8.7-1.8-18-2.8-27.5-2.8-38.9 0-67.9 15.7-67.9 29.7v1l1 10.4-10.5 0.5c-19.2 0.9-39 7.8-52.8 18.4-15.6 12-21.1 26.7-14.1 37.4l5.5 8.4-8.5 5.5c-11 7-17.9 16.7-19.5 27.1-1.9 11.8 3.4 23.3 14.5 31.4l8.4 6.2-6.5 8.1c-7.6 9.5-7.3 21.7 0.9 33.5 7.4 10.6 20.4 19.4 35.5 24.1l7.7 2.4-0.7 8.1c-1 11.1 11.3 24.6 30.5 33.5 17.8 8.2 39.7 11.8 58.8 9.7l4.5-0.5 3.3 3c9.7 8.7 26.1 15.5 44.9 18.6 25.5 4.2 52.4 0.9 68.4-8.4l5.2-2.8z" fill="#9F6847" /><path d="M385.1 309.9c8.4-1.8 17.5-2.8 27-2.9-14.2-9.9-37.1-16.3-62.9-16.3-5.3 0-10.5 0.3-15.4 0.8 21.7 2.2 40.2 9 51.3 18.4zM251.6 309.9c1.2-1 2.5-2 3.8-2.9h-2.6c-5.3 0-10.5 0.3-15.5 0.8 5 0.4 9.8 1.2 14.3 2.1zM330.5 633.7c-9.4 5.4-21.9 9.1-35.9 10.7 18.7 2 36.8 0.3 51.3-4.1-5.7-1.8-10.9-4-15.4-6.6zM630.7 453.8c-2.5-16-14.3-29.6-30.5-37.6 6.7-14.4 0.6-32.5-18.4-47.1-16.1-12.4-37.8-19.6-58.4-20.5 0.1-0.6 0.1-1.3 0.1-1.9 0-21.9-34.9-39.7-77.9-39.7-5.3 0-10.4 0.3-15.4 0.8 35.6 3.7 62.5 19.7 62.5 38.9 0 0.6 0 1.3-0.1 1.9 20.6 0.9 42.3 8.1 58.4 20.5 18.9 14.6 25.1 32.7 18.4 47.1 16.2 8.1 28 21.7 30.5 37.6 2.9 18.3-7.1 35.1-24.3 44.8 7.4 12 6.8 27.3-3.2 41.7-9.1 13-24.1 22.8-40.8 27.9 1.4 15.2-11.8 32.1-36.3 43.4-12.5 5.8-26.3 9.3-39.7 10.6-10.8 9.6-28.3 17.4-49.9 21-2.8 0.5-5.5 0.8-8.3 1.1 12.2 1.4 25.6 1.1 39.2-1.1 21.5-3.5 39.1-11.3 49.9-21 13.5-1.3 27.2-4.8 39.7-10.6 24.5-11.3 37.6-28.2 36.3-43.4 16.7-5.2 31.7-14.9 40.8-27.9 10-14.4 10.6-29.6 3.2-41.7 17.1-9.7 27.1-26.5 24.2-44.8z" fill="#EF9529" /><path d="M314 309.9c11-9.3 29.4-16.1 51-18.4-5.1-0.5-10.4-0.8-15.8-0.8-25.8 0-48.7 6.4-62.9 16.3 9.8 0.1 19.1 1.1 27.7 2.9zM447.5 309.9c4.4-0.9 9.1-1.6 13.9-2.2-5.1-0.5-10.4-0.8-15.8-0.8h-1.9c1.3 1 2.6 2 3.8 3zM393 633.7c-4.6 2.6-9.9 4.9-15.8 6.6 14.6 4.4 32.7 6 51.3 4-13.9-1.5-26.2-5.2-35.5-10.6zM317.9 643.3c-21.6-3.5-39.2-11.4-49.9-21-20.2 2.3-43.8-1.2-64.1-10.6-24.5-11.3-37.6-28.2-36.3-43.4-16.7-5.2-31.7-14.9-40.8-27.9-11.1-16-10.6-32.9-0.6-45.4-13.6-10-21-24.9-18.5-41.1 2.2-13.8 11.2-25.8 24-34-9.8-14.9-4.2-34.9 16.3-50.8 16.1-12.4 37.8-19.6 58.4-20.5-0.1-0.6-0.1-1.3-0.1-1.9 0-19.2 26.7-35.2 62.1-38.9-5.1-0.5-10.3-0.8-15.7-0.8-43 0-77.9 17.8-77.9 39.7 0 0.6 0 1.3 0.1 1.9-20.6 0.9-42.3 8.1-58.4 20.5-20.5 15.8-26 35.9-16.2 50.7-12.8 8.2-21.8 20.2-24 34-2.6 16.1 4.9 31.1 18.5 41.1-10 12.5-10.6 29.5 0.6 45.4 9.1 13 24.1 22.8 40.8 27.9-1.4 15.2 11.8 32.1 36.3 43.4 20.3 9.4 43.9 12.8 64.1 10.6 10.8 9.7 28.4 17.5 49.9 21 13.6 2.2 27.1 2.5 39.5 1.1-2.8-0.2-5.4-0.6-8.1-1z" fill="#FFC885" /><path d="M412.7 655.2c-19.1 0-37.3-3.5-51.3-10.2-20.1 9.6-48.8 12.7-76.7 8.2-20.8-3.4-38.9-10.7-51.5-20.5-21.7 1.6-45.1-2.6-65-11.8-24-11.1-39.3-27.9-41.8-45.3-16.6-6.4-30.4-16.7-39.3-29.4-11.1-16-12.9-34.1-5.4-49.2-12.2-12.2-17.9-28.3-15.3-44.6 2.1-13.6 9.6-25.9 21.3-35.6-6.3-18.2 2.1-39.5 22.8-55.5 15.1-11.6 34.8-19.4 55.3-21.8 2.8-11.6 12.3-21.9 27.4-29.7 16.1-8.2 37.3-12.7 59.6-12.7 9.3 0 18.4 0.8 27 2.3 16.3-11.7 41.8-18.5 69.3-18.5s53 6.9 69.3 18.5c8.7-1.5 17.8-2.3 27-2.3 22.4 0 43.5 4.5 59.6 12.7 15.1 7.7 24.6 18 27.4 29.7 20.5 2.5 40.3 10.2 55.3 21.8 18.9 14.6 27.6 33.2 24.3 50.3 15.6 10 25.8 24.5 28.4 40.8 3 19-5.1 37.5-21.5 50 4.7 14 2.1 29.7-7.7 43.8-8.9 12.7-22.6 23-39.3 29.4-2.5 17.4-17.8 34.2-41.8 45.3-12.2 5.6-25.9 9.5-39.8 11.2-12.7 10.2-31.1 17.7-52.4 21.2-8.3 1.2-16.8 1.9-25.2 1.9z m-51.3-33l5 2.9c16.1 9.3 42.9 12.5 68.4 8.4 18.8-3.1 35.1-9.8 44.8-18.5l2.4-2.2 3.3-0.3c12.8-1.3 25.5-4.6 36.5-9.8 19.2-8.9 31.5-22.3 30.5-33.5l-0.7-8.1 7.7-2.4c15.2-4.7 28.1-13.5 35.5-24.1 7.4-10.7 8.5-21.6 2.9-30.7l-5.4-8.8 9-5.1c14.3-8.1 21.5-21 19.4-34.6-1.9-12.2-11.1-23.3-25.1-30.3l-8.7-4.4 4.1-8.8c4.9-10.4-1-23.8-15.4-35-13.8-10.7-33.5-17.5-52.8-18.4l-10.5-0.5 1-10.4v-1c0-14-29-29.7-67.9-29.7-9.5 0-18.8 0.9-27.5 2.8l-4.8 1-3.7-3.1c-12.3-10.4-35.4-16.9-60.3-16.9s-48 6.5-60.3 16.9l-3.7 3.1-4.8-1c-8.7-1.8-18-2.8-27.5-2.8-38.9 0-67.9 15.7-67.9 29.7v1l1 10.4-10.5 0.5c-19.2 0.9-39 7.8-52.8 18.4-15.6 12-21.1 26.7-14.1 37.4l5.5 8.4-8.5 5.5c-11 7-17.9 16.7-19.5 27.1-1.9 11.8 3.4 23.3 14.5 31.4l8.4 6.2-6.5 8.1c-7.6 9.5-7.3 21.7 0.9 33.5 7.4 10.6 20.4 19.4 35.5 24.1l7.7 2.4-0.7 8.1c-1 11.1 11.3 24.6 30.5 33.5 17.8 8.2 39.7 11.8 58.8 9.7l4.5-0.5 3.3 3c9.7 8.7 26.1 15.5 44.9 18.6 25.5 4.2 52.4 0.9 68.4-8.4l5.2-2.8z" fill="#9F6847" /><path d="M132.6 686.8c-5.4 0-9.8-4.3-10-9.7l-3.5-105.3c-0.2-5.5 4.1-10.1 9.7-10.3 5.5-0.2 10.1 4.1 10.3 9.7l3.5 105.3c0.2 5.5-4.1 10.1-9.7 10.3h-0.3zM227.4 739.5c-5.5 0-10-4.5-10-10V627.7c0-5.5 4.5-10 10-10s10 4.5 10 10v101.8c0 5.5-4.5 10-10 10zM360.8 753.5c-5.5 0-10-4.5-10-10V641.7c0-5.5 4.5-10 10-10s10 4.5 10 10v101.8c0 5.6-4.5 10-10 10zM487.2 739.5c-5.5 0-10-4.5-10-10v-94.8c0-5.5 4.5-10 10-10s10 4.5 10 10v94.8c0 5.5-4.5 10-10 10zM571.4 679.8c-5.5 0-10-4.5-10-10V575c0-5.5 4.5-10 10-10s10 4.5 10 10v94.8c0 5.5-4.4 10-10 10zM617.1 620.1c-5.5 0-10-4.5-10-10V497.8c0-5.5 4.5-10 10-10s10 4.5 10 10v112.3c0 5.6-4.5 10-10 10z" fill="#9F6847" /><path d="M352 606.1c-56.7 0-110.1-13.5-150.4-38-41.9-25.4-65-59.8-65-96.7 0-36.9 23.1-71.2 65-96.7 40.3-24.5 93.7-38 150.4-38s110.1 13.5 150.4 38c41.9 25.4 65 59.8 65 96.7 0 36.9-23.1 71.2-65 96.7-40.3 24.5-93.7 38-150.4 38z m0-249.2c-53 0-102.8 12.4-140 35-35.7 21.7-55.3 49.9-55.3 79.6 0 29.7 19.7 57.9 55.3 79.6 37.2 22.6 87 35 140 35s102.8-12.4 140-35c35.7-21.7 55.3-49.9 55.3-79.6 0-29.7-19.7-57.9-55.3-79.6-37.2-22.6-86.9-35-140-35z" fill="#9F6847" /><path d="M490.7 392H216.9c-5.5 0-10-4.5-10-10s4.5-10 10-10h273.8c5.5 0 10 4.5 10 10s-4.5 10-10 10zM490.7 571H216.9c-5.5 0-10-4.5-10-10s4.5-10 10-10h273.8c5.5 0 10 4.5 10 10s-4.5 10-10 10zM532.8 532.4H164.2c-5.5 0-10-4.5-10-10s4.5-10 10-10h368.6c5.5 0 10 4.5 10 10s-4.5 10-10 10z" fill="#9F6847" /><path d="M395.9 532.4c-3.7 0-7.2-1.6-9.8-4.5-4.8-5.3-8.9-16.4-7-61.7 0.5-11.6 1.3-22.8 2-31.3l-2 0.7c-3.2 8.4-10.8 26.9-20.9 45.1-8.1 14.6-16.2 26-24.2 33.9-11.6 11.6-23.3 16.3-34.8 14-10.8-2.2-23.9-10.8-24.9-39.9-0.5-16.4 2.7-35.4 5.1-49.3 0.3-2 0.7-4.1 1-6.2-5.1 1.6-10.8 3.3-16.3 4-1 3.3-2.2 8.7-3.2 13.3-2.9 13.1-6.8 31.1-14.6 45.8-10.2 19.3-24.8 29.1-43.4 29.1-17.4 0-40.6-8.2-52.6-47.5-6.5-21.4-6.6-42.4-6.6-43.3 0-2.2 0.7-4.3 2-6l10.5-14c1.9-2.5 4.9-4 8-4h368.6c2.9 0 5.7 1.3 7.6 3.5 26.3 30.3 26.9 58.9 22.8 77.6-4.4 20.2-15.3 33.2-15.7 33.7-1.1 1.2-2.4 2.2-3.9 2.8-0.9 0.3-21.7 8.4-49.8-3.6-14.7-6.3-22.4-28.9-28-56.9-7.2 21-16.7 37.1-28.5 48-12 11.1-25.9 16.7-41.4 16.7z m5.6-101.8c-0.7 8.2-1.7 21-2.3 34.3-1.4 30 0.1 42.4 1.2 47.3 8.6-0.9 16.2-4.6 23.2-11.1 14.2-13.2 24.7-36.9 31.2-70.5h-53.3z m78.2 0c0.3 1.9 0.6 4 1 6.2 2 12.5 4.7 29.6 8.8 44.3 6.1 21.9 11.6 24.9 12.3 25.1 15.5 6.6 27.3 5.2 32.2 4 6-8.7 24.7-41.4-5.7-79.6h-48.6z m-178.6 0c-0.5 3.3-1.1 7.3-2 12.2-3.2 18.9-10.8 63.3 4 66.3 9.2 1.8 23.2-12.3 37.5-37.9 8.7-15.7 15.5-31.9 19-40.6h-58.5z m-137.3 7.2c0.6 13.8 5.3 67.5 39 67.5 23.6 0 31.9-29.2 38.5-59.1 1.4-6.2 2.5-11.5 3.9-15.7h-76l-5.4 7.3z" fill="#9F6847" /><path d="M312.9 532.4c-15.5 0-29.4-5.6-41.3-16.7-11.8-10.9-21.3-27-28.5-48-5.6 28-13.3 50.6-28 56.9-28.1 12-48.9 4-49.8 3.6-1.5-0.6-2.9-1.6-3.9-2.8-0.5-0.5-11.3-13.5-15.7-33.7-4.1-18.7-3.5-47.3 22.8-77.6 1.9-2.2 4.7-3.5 7.6-3.5h368.6c3.1 0 6.1 1.5 8 4l10.5 14c1.3 1.7 2 3.8 2 6 0 0.9-0.1 21.9-6.6 43.3-11.9 39.2-35.2 47.5-52.6 47.5-18.6 0-33.2-9.8-43.4-29.1-7.8-14.7-11.7-32.7-14.6-45.8-1-4.6-2.2-10-3.2-13.3-5.6-0.7-11.2-2.4-16.3-4 0.3 2.1 0.7 4.2 1 6.2 2.4 13.9 5.6 32.9 5.1 49.3-1 29.1-14.1 37.8-24.9 39.9-11.5 2.3-23.2-2.4-34.8-14-7.9-7.9-16.1-19.3-24.2-33.9-10.1-18.2-17.7-36.8-20.9-45.1l-2-0.7c0.7 8.5 1.5 19.7 2 31.3 1.9 45.3-2.2 56.4-7 61.7-2.7 2.9-6.2 4.5-9.9 4.5zM254 430.6c6.5 33.6 17 57.3 31.2 70.5 7 6.5 14.6 10.2 23.2 11.1 1.1-4.8 2.6-17.2 1.2-47.3-0.6-13.4-1.6-26.1-2.3-34.3H254z m-79 79.6c4.9 1.1 16.7 2.6 32.2-4.1 0.6-0.3 6.1-3.2 12.3-25.1 4.1-14.7 6.8-31.8 8.8-44.3 0.3-2.2 0.7-4.3 1-6.2h-48.5c-30.5 38.3-11.9 71-5.8 79.7z m174.3-79.6c3.4 8.7 10.2 25 19 40.6 14.2 25.6 28.2 39.7 37.5 37.9 14.8-3 7.3-47.3 4-66.3-0.8-4.9-1.5-8.9-2-12.2h-58.5z m114.3 0c1.4 4.2 2.5 9.5 3.9 15.7 6.6 29.9 14.9 59.1 38.5 59.1 5.8 0 23.3 0 33.4-33.3 4.3-14 5.3-28.1 5.6-34.2l-5.4-7.3h-76z" fill="#9F6847" /></svg>